Coordinates
version=1
nRows=9
nColumns=36
inDegrees=yes

Units are S.I. units (second, meters, Newtons, ...)
If the header above contains a line with 'inDegrees', this indicates whether rotational values are in degrees (yes) or radians (no).

endheader
time	pelvis_tilt	pelvis_list	pelvis_rotation	pelvis_tx	pelvis_ty	pelvis_tz	hip_flexion_r	hip_adduction_r	hip_rotation_r	knee_angle_r	knee_angle_r_beta	ankle_angle_r	subtalar_angle_r	mtp_angle_r	hip_flexion_l	hip_adduction_l	hip_rotation_l	knee_angle_l	knee_angle_l_beta	ankle_angle_l	subtalar_angle_l	mtp_angle_l	lumbar_extension	lumbar_bending	lumbar_rotation	arm_flex_r	arm_add_r	arm_rot_r	elbow_flex_r	pro_sup_r	arm_flex_l	arm_add_l	arm_rot_l	elbow_flex_l	pro_sup_l
      0.00000000	     -3.65318624	     -0.18277695	      4.05045528	     -0.32241244	      1.23123948	     -0.04456388	      0.64836931	      1.96317251	      6.79516309	      1.93395810	      0.03375394	      9.97058972	    -15.71215773	     -6.63584141	     -0.33803715	     -0.94398466	      5.52962249	      4.23930535	      0.07398984	      7.49785319	    -10.76341403	     -6.63584141	     -2.13762837	     -0.12182471	     -3.49642953	      2.98623868	     -6.95667389	     14.51086789	     21.68686751	     78.34242366	     -2.73351220	     -8.58000844	      8.85373704	     28.39968206	     73.71312029
      0.01666670	     -6.61319810	     -0.25568658	      4.07863584	     -0.32089360	      1.22700388	     -0.04488620	      3.77109812	      1.83242499	      6.52660712	      2.31782855	      0.04045374	     12.15215478	    -13.06324022	     -7.07595604	      3.08903501	     -0.43739367	      5.17813850	      4.67160060	      0.08153481	      6.96186476	     -9.71473056	     -7.07595604	      2.05389718	     -0.03778059	     -3.13867098	      1.12452136	     -5.88704392	      4.57113026	     22.72595883	     87.83904414	     -3.48059509	     -6.93159043	      1.34786621	     27.97242983	     80.72469728
      0.03333330	     -7.57146101	      0.55410043	      3.76765166	     -0.32077264	      1.22518050	     -0.04366785	      4.30881463	      0.85767355	      6.01941416	      1.76739666	      0.03084689	     12.68729006	    -11.31085843	     -7.15427774	      3.96159181	      0.29992086	      3.76158228	      4.62799061	      0.08077367	      7.33780408	     -8.28530398	     -7.15427774	      3.46871744	     -1.23792632	     -2.72697163	      0.62244419	     -5.28316701	      2.81298964	     23.42929954	     86.38327183	     -4.06605078	     -7.19313887	      1.35156384	     27.76927388	     79.15181120
      0.05000000	     -7.53326247	      1.03022227	      3.42675676	     -0.32085821	      1.22584214	     -0.04298112	      3.99647369	      0.31610237	      5.50604362	      1.39579930	      0.02436129	     13.30147536	     -9.73772614	     -7.21423561	      3.33429706	      0.77209251	      3.51691273	      3.61464682	      0.06308749	      7.01451391	     -7.78233399	     -7.21423561	      3.46460975	     -1.82681660	     -2.26793383	      0.38343429	     -5.16500366	      2.34340920	     24.04937906	     84.25146135	     -4.49092622	     -7.48160611	      1.64848734	     27.94421931	     77.24970723
      0.06666670	     -7.60875939	      1.29286394	      3.14772013	     -0.32118472	      1.22346872	     -0.04227838	      3.90476945	      0.04991790	      5.56533887	      1.13531413	      0.01981497	     13.49669789	     -9.32821657	     -7.34524207	      3.18339314	      1.07953890	      3.34721646	      3.15545816	      0.05507313	      7.08085988	     -7.30615536	     -7.34524207	      3.62683676	     -2.07273075	     -1.79752877	      0.16479837	     -5.34129530	      3.16813964	     24.59446510	     84.06758057	     -4.45070221	     -8.06708168	      4.53359854	     27.71583672	     75.43322036
      0.08333330	     -7.62002093	      1.38431744	      2.82544417	     -0.32109179	      1.22667930	     -0.04174809	      3.93076245	      0.00485028	      5.55210829	      0.96285307	      0.01680496	     13.53892545	     -9.03963030	     -7.42879175	      2.93554936	      1.13797401	      2.95991821	      2.73031296	      0.04765295	      7.02426570	     -6.97224028	     -7.42879175	      3.60780771	     -2.09222036	     -1.27752584	     -0.05842280	     -5.08380305	      0.24485246	     25.12040661	     90.54730652	     -4.32551679	     -8.09832213	      4.49726021	     27.59923789	     76.48453616
      0.10000000	     -7.64528044	      1.39498459	      2.75873013	     -0.32126304	      1.22663723	     -0.04137412	      3.86419554	      0.00473807	      5.36726950	      0.80285793	      0.01401251	     13.29220401	     -8.79576814	     -7.47832992	      2.91182102	      1.14872739	      2.75337764	      2.58916694	      0.04518949	      6.89258720	     -6.89935106	     -7.47832992	      3.73968570	     -2.00435003	     -1.03246565	     -0.04405917	     -5.02803318	     -0.22319930	     24.96540407	     91.37999144	     -3.97372136	     -8.05785757	      4.78132822	     27.22848322	     75.60332511
      0.11666670	     -7.65404763	      1.45646197	      2.67367556	     -0.32189890	      1.22395703	     -0.04114595	      3.84760584	     -0.05951849	      5.32975521	      0.74120763	      0.01293651	     13.17424497	     -8.73983139	     -7.49452396	      2.89293602	      1.19834552	      2.59770701	      2.51553008	      0.04390428	      6.76320530	     -7.01260903	     -7.49452396	      3.79005570	     -2.07386951	     -0.72229263	      0.01444975	     -5.07251485	      0.25411859	     24.80682099	     91.11690980	     -3.63544420	     -8.14795832	      5.22746843	     27.13339656	     74.19374794
      0.13333330	     -7.85597774	      1.54436618	      2.58998827	     -0.32205811	      1.22653473	     -0.04072422	      4.13315674	     -0.10095275	      5.42056376	      0.60654469	      0.01058620	     13.14272261	     -8.31845177	     -7.49822559	      3.16134771	      1.28787652	      2.66283158	      2.37909103	      0.04152297	      6.63861366	     -7.02543910	     -7.49822559	      4.03475389	     -2.17901733	     -0.57565232	      0.05676957	     -5.00374690	      0.26832174	     24.66254366	     91.34418467	     -3.42730691	     -8.16435589	      5.31717025	     27.01272414	     73.36972692
